# Blender v3.0.1 OBJ File: ''
# www.blender.org
mtllib obj_test.mtl
o Cube
v 0.512445 0.512445 -1.000000
v 0.665174 1.000000 -0.665174
v 1.000000 0.665174 -0.665174
v 0.665174 -1.000000 -0.665174
v 0.512445 -0.512445 -1.000000
v 1.000000 -0.665174 -0.665174
v 1.000000 0.665174 0.665174
v 0.665585 0.998555 0.669072
v 0.541842 0.653827 2.120141
v 1.000000 -0.665174 0.665174
v 0.665174 -0.665174 1.000000
v 0.665174 -1.000000 0.665174
v -0.512445 0.512445 -1.000000
v -1.427119 0.803489 -0.836258
v -0.667776 1.002611 -0.665185
v -1.000000 -0.665174 -0.665174
v -0.512445 -0.512445 -1.000000
v -0.665174 -1.000000 -0.665174
v -1.010498 0.678263 0.678263
v -0.678263 0.678263 1.010498
v -0.698694 1.292717 0.558520
v -0.665174 -1.000000 0.665174
v -0.667776 -0.665185 1.002611
v -1.002611 -0.665185 0.667776
v -0.665174 -0.665174 -1.000000
v 0.665174 -0.665174 -1.000000
v 0.665174 0.665174 -1.000000
v -0.665174 0.665174 -1.000000
v -0.665174 -0.665174 -1.000000
v 0.665174 -0.665174 -1.000000
v 0.665174 0.665174 -1.000000
v -0.665174 0.665174 -1.000000
v 0.501778 1.034555 -0.013319
v 0.173767 1.057418 -0.426991
v -0.338449 1.108211 -0.216931
v -0.232840 1.192497 0.373363
v 0.044944 1.132561 0.436115
v 0.299328 1.077698 0.470219
v -0.665174 -1.000000 0.000000
v -1.001306 -0.665179 0.001301
v 0.665380 0.999277 0.001949
v 1.000000 0.665174 0.000000
v -0.683235 1.147664 -0.053332
v -1.218809 0.740876 -0.078997
v 0.665174 -1.000000 0.000000
v 1.000000 -0.665174 0.000000
v -1.000653 -0.665177 -0.331937
v 1.000000 0.665174 -0.332587
v -0.675505 1.075138 -0.359258
v 0.665174 -1.000000 -0.332587
v -0.665174 -1.000000 -0.332587
v 0.665277 0.999639 -0.331613
v -1.322964 0.772183 -0.457628
v 1.000000 -0.665174 -0.332587
v -0.665174 -1.000000 0.362022
v 0.665491 0.998884 0.365032
v -1.105435 0.706799 0.333143
v 1.000000 -0.665174 0.362022
v -1.002016 -0.665182 0.364031
v 1.000000 0.665174 0.362022
v -0.691648 1.226609 0.279669
v 0.665174 -1.000000 0.362022
v -0.662878 -0.996135 0.533771
v 0.667787 1.002749 0.536780
v -1.103139 0.710664 0.504892
v 1.002296 -0.661310 0.533771
v -0.999720 -0.661318 0.535779
v 1.002296 0.669039 0.533771
v -0.689352 1.230474 0.451418
v 0.667470 -0.996135 0.533771
v 0.659274 2.143322 -0.102196
v 0.331264 2.166186 -0.515867
v -0.180952 2.216979 -0.305808
v -0.075343 2.301265 0.284487
v 0.202440 2.241329 0.347239
v 0.456825 2.186465 0.381343
v 1.897514 1.127994 0.656854
v 1.563098 1.461374 0.660751
v 1.897514 -0.202355 0.656854
v 1.562893 1.462097 -0.006372
v 1.897514 1.127994 -0.008321
v 1.563005 1.461703 0.356711
v 1.897514 -0.202355 0.353701
v 1.897514 1.127994 0.353701
v 1.565301 1.465568 0.528459
v 1.899810 -0.198490 0.525450
v 1.899810 1.131858 0.525450
vt 0.166853 0.670253
vt 0.333147 0.670253
vt 0.333147 0.708147
vt 0.166853 0.708147
vt 0.416732 0.166613
vt 0.583267 0.166698
vt 0.583226 0.208394
vt 0.416774 0.208226
vt 0.416774 0.791774
vt 0.583226 0.791606
vt 0.583393 0.958393
vt 0.416606 0.958226
vt 0.666773 0.541773
vt 0.833226 0.541606
vt 0.791542 0.601711
vt 0.728334 0.572987
vt 0.687138 0.624188
vt 0.711715 0.686751
vt 0.666606 0.708226
vt 0.666644 0.670295
vt 0.666690 0.625000
vt 0.666732 0.583387
vt 0.625000 0.708472
vt 0.583147 0.708147
vt 0.583147 0.708147
vt 0.625000 0.708472
vt 0.583147 0.458147
vt 0.625000 0.458147
vt 0.583147 0.500000
vt 0.333147 0.541853
vt 0.333147 0.500000
vt 0.375000 0.541853
vt 0.583472 0.750000
vt 0.416853 0.708147
vt 0.416853 0.750000
vt 0.375000 0.708147
vt 0.583147 0.291853
vt 0.583472 0.250000
vt 0.625000 0.291528
vt 0.416853 0.250000
vt 0.375000 0.291853
vt 0.375000 0.291853
vt 0.583393 0.041607
vt 0.582820 0.000000
vt 0.625000 0.042180
vt 0.166528 0.750000
vt 0.125000 0.708472
vt 0.125000 0.670504
vt 0.166853 0.541853
vt 0.166853 0.500000
vt 0.583147 0.541853
vt 0.416853 0.541853
vt 0.416853 0.458147
vt 0.416202 0.000000
vt 0.416606 0.041774
vt 0.416853 0.291853
vt 0.625000 0.791202
vt 0.625000 0.957820
vt 0.000000 0.000000
vt 0.000000 0.000000
vt 0.000000 0.000000
vt 0.000000 0.000000
vt 0.333147 0.750000
vt 0.625000 0.167144
vt 0.625000 0.208798
vt 0.333147 0.583427
vt 0.416853 0.583427
vt 0.435944 0.310944
vt 0.564056 0.310944
vt 0.564056 0.439056
vt 0.435944 0.439056
vt 0.416853 0.291853
vt 0.416853 0.458147
vt 0.000000 0.000000
vt 0.000000 0.000000
vt 0.000000 0.000000
vt 0.000000 0.000000
vt 0.000000 0.000000
vt 0.000000 0.000000
vt 0.000000 0.000000
vt 0.000000 0.000000
vt 0.583147 0.458147
vt 0.583147 0.291853
vt 0.742976 0.684890
vt 0.777242 0.679510
vt 0.833268 0.583302
vt 0.833309 0.624999
vt 0.833355 0.670387
vt 0.833393 0.708393
vt 0.742976 0.684890
vt 0.777242 0.679510
vt 0.333147 0.625000
vt 0.416853 0.625000
vt 0.416853 0.670253
vt 0.625000 0.080148
vt 0.625000 0.125489
vt 0.583309 0.125001
vt 0.583355 0.079613
vt 0.583147 0.625000
vt 0.583147 0.583427
vt 0.166853 0.583427
vt 0.166853 0.625000
vt 0.125000 0.625163
vt 0.125000 0.583508
vt 0.416644 0.079705
vt 0.416690 0.125000
vt 0.125000 0.541853
vt 0.416853 0.670253
vt 0.416853 0.708147
vt 0.583147 0.670253
vt 0.583355 0.079613
vt 0.416644 0.079705
vt 0.000000 0.000000
vt 0.000000 0.000000
vt 0.000000 0.000000
vt 0.000000 0.000000
vt 0.625000 0.080148
vt 0.333147 0.670253
vt 0.166853 0.670253
vt 0.125000 0.670504
vt 0.416853 0.670253
vt 0.711715 0.686751
vt 0.687138 0.624188
vt 0.728334 0.572987
vt 0.791542 0.601711
vt 0.583147 0.670253
vt 0.666644 0.670295
vt 0.666606 0.708226
vt 0.666690 0.625000
vt 0.583147 0.625000
vt 0.583147 0.670253
vt 0.416853 0.670253
vt 0.666644 0.670295
vn 0.0000 -1.0000 0.0000
vn -0.9633 -0.2352 0.1297
vn -0.3714 -0.3780 0.8481
vn 0.0922 0.9892 -0.1137
vn 0.0101 -0.0016 0.9999
vn 0.5774 0.5774 -0.5774
vn 0.5774 -0.5774 -0.5774
vn 0.6896 0.6891 0.2225
vn 0.5774 -0.5774 0.5774
vn -0.0247 0.7040 -0.7097
vn -0.5774 -0.5774 -0.5774
vn -0.6333 0.4448 0.6333
vn -0.5743 -0.5833 0.5743
vn -0.7047 -0.7095 -0.0007
vn 0.0000 -0.7071 -0.7071
vn 0.7071 0.0000 -0.7071
vn -0.7071 -0.0097 0.7071
vn 0.9071 -0.1274 0.4011
vn -0.4233 -0.1195 -0.8981
vn -0.0996 0.8907 0.4435
vn 0.0093 0.0000 1.0000
vn 0.0007 -0.7085 0.7057
vn -0.3345 0.9424 -0.0096
vn 0.0007 0.7057 -0.7085
vn 0.7071 -0.7071 0.0000
vn 0.0000 0.0000 -1.0000
vn 0.0000 0.0000 1.0000
vn 0.1128 0.9844 -0.1352
vn -0.1973 0.1061 0.9746
vn -0.6966 0.7154 0.0550
vn 0.7067 0.7075 0.0003
vn -0.7061 -0.7081 -0.0007
vn 1.0000 0.0000 0.0000
vn -0.9845 -0.1082 0.1384
vn -0.7068 -0.7075 -0.0007
vn 0.7070 0.7072 0.0003
vn -0.5160 0.8563 0.0211
vn -0.9753 -0.1754 0.1341
vn -0.9891 -0.0395 0.1421
vn -0.8335 0.5461 0.0845
vn 0.4583 -0.8888 0.0000
vn -0.7053 -0.7089 -0.0007
vn 0.9971 0.0748 -0.0150
vn -0.4584 0.8886 -0.0139
vn 0.7826 -0.6226 0.0035
vn 0.0000 -0.9997 0.0225
vn -0.7047 -0.7091 0.0254
vn -0.7071 0.7071 -0.0065
vn 0.1402 0.9870 -0.0791
vn -0.3811 -0.0200 -0.9243
vn -0.1121 0.0952 0.9891
vn -0.9766 0.1510 0.1532
vn 0.7693 -0.1589 -0.6188
vn 0.9148 -0.0985 0.3918
vn 0.7061 0.7081 0.0003
vn 0.7064 0.7078 0.0003
vn 0.9999 0.0000 -0.0134
vn 0.7059 0.7078 -0.0254
vn -0.0081 -0.0023 -1.0000
vn -0.4583 0.8888 0.0011
vn 0.0092 0.0002 1.0000
vn 0.4584 -0.8886 0.0139
usemtl Material
s off
f 55/1/1 62/2/1 12/3/1 22/4/1
f 47/5/2 53/6/2 14/7/2 16/8/2
f 11/9/3 9/10/3 20/11/3 23/12/3
f 2/13/4 15/14/4 35/15/4 34/16/4 33/17/4 38/18/4 8/19/4 56/20/4 41/21/4 52/22/4
f 8/23/5 7/24/5 77/25/5 78/26/5
f 27/27/6 2/28/6 3/29/6
f 4/30/7 26/31/7 6/32/7
f 7/24/8 8/23/8 9/33/8
f 10/34/9 11/35/9 12/36/9
f 28/37/10 14/38/10 15/39/10
f 16/40/11 25/41/11 18/42/11
f 19/43/12 20/44/12 21/45/12
f 22/4/13 23/46/13 24/47/13
f 55/1/14 22/4/14 24/47/14 59/48/14
f 4/30/15 18/49/15 25/50/15 26/31/15
f 3/51/16 6/52/16 26/53/16 27/27/16
f 23/54/17 20/44/17 19/43/17 24/55/17
f 9/10/18 11/9/18 10/34/18 7/24/18
f 28/37/19 25/56/19 16/8/19 14/7/19
f 8/57/20 21/58/20 20/11/20 9/10/20
f 68/59/21 66/60/21 86/61/21 87/62/21
f 22/4/22 12/3/22 11/63/22 23/46/22
f 49/64/23 15/65/23 14/7/23 53/6/23
f 15/39/24 2/28/24 27/27/24 28/37/24
f 50/66/25 4/30/25 6/52/25 54/67/25
f 17/68/26 13/69/26 1/70/26 5/71/26
f 29/72/27 30/73/27 26/53/27 25/56/27
f 30/74/27 31/75/27 27/76/27 26/77/27
f 32/78/27 29/79/27 25/80/27 28/81/27
f 31/82/27 32/83/27 28/37/27 27/27/27
f 17/68/26 5/71/26 30/73/26 29/72/26
f 5/71/26 1/70/26 31/82/26 30/73/26
f 13/69/26 17/68/26 29/72/26 32/83/26
f 1/70/26 13/69/26 32/83/26 31/82/26
f 8/19/28 38/18/28 37/84/28 36/85/28 35/15/28 15/14/28 49/86/28 43/87/28 61/88/28 21/89/28
f 36/85/29 37/84/29 75/90/29 74/91/29
f 62/2/25 45/92/25 46/93/25 58/94/25
f 61/95/30 43/96/30 44/97/30 57/98/30
f 52/22/31 41/21/31 42/99/31 48/100/31
f 51/101/32 39/102/32 40/103/32 47/104/32
f 54/67/33 48/100/33 42/99/33 46/93/33
f 59/105/34 57/98/34 44/97/34 40/106/34
f 51/101/1 50/66/1 45/92/1 39/102/1
f 18/49/1 4/30/1 50/66/1 51/101/1
f 6/52/33 3/51/33 48/100/33 54/67/33
f 18/49/35 51/101/35 47/104/35 16/107/35
f 2/13/36 52/22/36 48/100/36 3/51/36
f 45/92/25 50/66/25 54/67/25 46/93/25
f 43/96/37 49/64/37 53/6/37 44/97/37
f 40/106/38 44/97/38 53/6/38 47/5/38
f 24/55/39 19/43/39 57/98/39 59/105/39
f 21/45/40 61/95/40 57/98/40 19/43/40
f 12/3/25 62/2/25 58/94/25 10/34/25
f 10/34/41 58/94/41 83/108/41 79/109/41
f 39/102/42 55/1/42 59/48/42 40/103/42
f 46/93/33 42/99/33 60/110/33 58/94/33
f 39/102/1 45/92/1 62/2/1 55/1/1
f 59/105/43 57/98/43 65/111/43 67/112/43
f 7/24/21 10/34/21 79/109/21 77/25/21
f 56/113/44 64/114/44 85/115/44 82/116/44
f 57/98/45 61/95/45 69/117/45 65/111/45
f 55/1/46 62/2/46 70/118/46 63/119/46
f 59/48/47 55/1/47 63/119/47 67/120/47
f 58/94/48 62/2/48 70/118/48 66/121/48
f 74/91/49 75/90/49 76/122/49 71/123/49 72/124/49 73/125/49
f 34/16/50 35/15/50 73/125/50 72/124/50
f 37/84/51 38/18/51 76/122/51 75/90/51
f 35/15/52 36/85/52 74/91/52 73/125/52
f 33/17/53 34/16/53 72/124/53 71/123/53
f 38/18/54 33/17/54 71/123/54 76/122/54
f 83/108/33 84/126/33 77/25/33 79/109/33
f 82/127/55 78/128/55 77/25/55 84/126/55
f 80/129/56 82/127/56 84/126/56 81/130/56
f 83/108/57 84/126/57 87/131/57 86/132/57
f 84/126/58 82/127/58 85/133/58 87/131/58
f 60/110/41 42/99/41 81/130/41 84/126/41
f 42/99/59 41/21/59 80/129/59 81/130/59
f 56/20/60 8/19/60 78/128/60 82/127/60
f 41/21/60 56/20/60 82/127/60 80/129/60
f 64/114/61 68/59/61 87/62/61 85/115/61
f 66/121/62 58/94/62 83/108/62 86/132/62
