# Blender v3.0.1 OBJ File: ''
# www.blender.org
mtllib vert_test.mtl
o Cube_Cube.002
v -0.315920 0.892666 0.683187
v 0.560846 1.875498 -1.481508
v -0.359146 0.968137 -0.273750
v -0.255557 1.096822 -0.146584
v -0.316544 2.068449 -1.266286
v -0.420133 1.939764 -1.393452
v 0.621833 0.903871 -0.361807
v 0.029000 1.409437 0.435225
v -0.083035 0.986296 0.448848
v -0.069171 1.025536 0.290972
v 0.555308 0.889362 0.565552
v 0.466818 0.888516 0.651022
v 0.402853 1.019832 0.488310
v 0.460297 0.910998 0.607109
v 0.523656 0.927040 0.550121
v 0.261815 1.210440 -0.094917
v 0.383955 1.177257 -0.129843
v 0.200828 2.182066 -1.214619
v 0.322968 2.148884 -1.249545
v 0.665198 1.679336 0.965639
v 0.722643 1.570503 1.084438
v 0.786002 1.586545 1.027450
vt 0.657864 0.500000
vt 0.875000 0.500000
vt 0.875000 0.703212
vt 0.664987 0.717445
vt 0.375000 0.250000
vt 0.625000 0.250000
vt 0.625000 0.467136
vt 0.586099 0.500000
vt 0.375000 0.500000
vt 0.375000 0.500000
vt 0.125000 0.500000
vt 0.125000 0.500000
vt 0.375000 0.000000
vt 0.575997 0.000000
vt 0.625000 0.046788
vt 0.625000 0.250000
vt 0.375000 0.250000
vt 0.586099 0.500000
vt 0.471357 0.726896
vt 0.375000 0.729673
vt 0.351136 0.750000
vt 0.125000 0.750000
vt 0.494660 0.775409
vt 0.471357 0.726896
vt 0.494660 0.775409
vt 0.375000 0.773864
vt 0.625000 0.814158
vt 0.625000 1.000000
vt 0.575997 1.000000
vt 0.375000 1.000000
vt 0.657864 0.500000
vt 0.875000 0.500000
vt 0.750670 0.813754
vt 0.518350 0.750000
vt 0.544293 0.750000
vt 0.625000 0.814158
vt 0.664987 0.717445
vn -0.1772 0.9381 0.2975
vn -0.0411 0.6548 -0.7546
vn -0.1076 -0.7538 -0.6482
vn -0.4720 0.8634 0.1781
vn 0.7769 0.6260 0.0677
vn -0.0405 -0.9981 -0.0470
vn 0.6100 -0.6093 0.5066
vn 0.4316 0.8772 0.2102
vn 0.3979 0.7597 0.5142
vn -0.0992 0.8707 0.4816
vn 0.0172 0.9177 0.3970
vn 0.3649 0.7129 0.5988
vn 0.8329 0.4396 0.3361
vn -0.2248 0.7299 0.6456
vn -0.8678 0.3509 0.3518
vn 0.3067 0.7710 0.5581
vn -0.8906 0.0256 0.4541
vn 0.6049 0.2948 -0.7397
usemtl None
s off
f 16/1/1 4/2/1 10/3/1 13/4/1
f 6/5/2 5/6/2 18/7/2 19/8/2 2/9/2
f 7/10/3 3/11/3 6/12/3 2/9/3
f 1/13/4 9/14/4 10/15/4 4/16/4 3/17/4
f 7/10/5 17/18/5 15/19/5 11/20/5
f 3/11/6 7/10/6 11/20/6 12/21/6 1/22/6
f 14/23/7 15/19/7 22/24/7 21/25/7
f 16/1/8 13/4/8 15/19/8 17/18/8
f 14/23/9 12/26/9 11/20/9 15/19/9
f 13/27/10 10/28/10 9/29/10 14/23/10
f 12/26/11 14/23/11 9/29/11 1/30/11
f 16/1/12 17/18/12 19/8/12 18/31/12
f 17/18/13 7/10/13 2/9/13 19/8/13
f 4/2/14 16/1/14 18/31/14 5/32/14
f 3/17/15 4/16/15 5/6/15 6/5/15
f 20/33/16 21/34/16 22/35/16
f 13/27/17 14/23/17 21/25/17 20/36/17
f 15/19/18 13/4/18 20/37/18 22/24/18
l 16 8
